<svg width="440" height="306" viewBox="0 0 440 306" fill="none" xmlns="http://www.w3.org/2000/svg">
<g filter="url(#filter0_d_16_23)">
<path d="M256.565 110L50.5645 96L44.5645 96L28.5645 110L17.5645 148L17.5645 178L4.56453 213L10.5645 250L50.5645 260L113.565 271L146.565 284L164.565 260L176.565 277L187.565 260L227.565 277L302.565 277L361.565 292L374.565 284L374.565 206L397.565 172L383.565 153L397.565 140L389.565 119L330.565 110L302.565 110L256.565 110Z" fill="#FFF8E4"/>
</g>
<path d="M61 149L347 171M61 186L322 205M61 226L331 244" stroke="#C1C1C1"/>
<path d="M128.365 166.85C127.931 166.583 127.698 166.317 127.665 166.05C127.631 165.817 127.715 165.35 127.915 164.65C127.881 164.217 127.898 163.817 127.965 163.45C128.065 163.083 128.131 162.833 128.165 162.7C128.331 162.7 128.431 162.6 128.465 162.4C128.498 162.2 128.515 162.033 128.515 161.9C128.515 161.633 128.615 161.183 128.815 160.55C129.048 159.917 129.248 159.267 129.415 158.6C129.681 157.933 129.931 157.317 130.165 156.75C130.431 156.15 130.565 155.783 130.565 155.65C130.565 155.383 130.631 155.117 130.765 154.85C130.898 154.55 131.048 154.267 131.215 154C131.381 153.6 131.498 153.167 131.565 152.7C131.665 152.2 131.715 151.817 131.715 151.55C131.915 151.117 132.131 150.65 132.365 150.15C132.598 149.65 132.781 149.133 132.915 148.6C133.115 148.033 133.398 147.217 133.765 146.15C134.165 145.05 134.581 143.933 135.015 142.8C135.315 142.167 135.615 141.5 135.915 140.8C136.215 140.1 136.481 139.5 136.715 139C136.948 138.5 137.115 138.25 137.215 138.25C137.215 138.25 137.215 138.2 137.215 138.1C137.215 137.967 137.215 137.833 137.215 137.7C137.215 137.533 137.348 137.217 137.615 136.75C137.881 136.25 138.131 135.733 138.365 135.2C138.698 134.7 138.931 134.233 139.065 133.8C139.198 133.333 139.265 133.1 139.265 133.1C139.265 133.1 139.315 133 139.415 132.8C139.548 132.6 139.681 132.433 139.815 132.3C140.248 132 140.648 131.883 141.015 131.95C141.415 132.017 141.748 132.333 142.015 132.9C142.281 133.433 142.398 133.883 142.365 134.25C142.331 134.583 142.181 134.95 141.915 135.35C141.648 135.95 141.298 136.717 140.865 137.65C140.431 138.55 139.965 139.533 139.465 140.6C138.998 141.633 138.548 142.633 138.115 143.6C137.715 144.533 137.381 145.35 137.115 146.05C136.881 146.717 136.765 147.133 136.765 147.3L134.715 152.35C134.715 152.417 134.648 152.583 134.515 152.85C134.415 153.117 134.265 153.517 134.065 154.05C133.898 154.583 133.681 155.283 133.415 156.15C133.148 157.017 132.831 158.067 132.465 159.3C131.798 161.433 131.281 163.1 130.915 164.3C130.548 165.467 130.248 166.267 130.015 166.7C129.815 167.167 129.598 167.4 129.365 167.4C129.231 167.4 129.081 167.333 128.915 167.2C128.781 167.1 128.598 166.983 128.365 166.85ZM146.015 167.25C145.715 167.283 145.298 167.133 144.765 166.8C144.265 166.5 143.715 166.117 143.115 165.65C142.548 165.183 141.998 164.7 141.465 164.2C140.965 163.7 140.565 163.267 140.265 162.9C139.731 162.133 139.065 161.133 138.265 159.9C137.465 158.633 136.865 157.283 136.465 155.85C136.231 154.783 135.998 153.95 135.765 153.35C135.531 152.717 135.381 152.2 135.315 151.8L135.365 148.3L137.915 149.1C138.081 150.9 138.331 152.4 138.665 153.6C139.031 154.767 139.465 155.8 139.965 156.7C140.365 157.567 140.815 158.433 141.315 159.3C141.815 160.133 142.348 160.833 142.915 161.4C143.681 162.233 144.365 162.85 144.965 163.25C145.565 163.65 146.015 163.85 146.315 163.85C146.481 163.883 146.715 164 147.015 164.2C147.348 164.4 147.648 164.617 147.915 164.85C148.215 165.05 148.381 165.25 148.415 165.45C148.448 165.55 148.465 165.7 148.465 165.9C148.465 166.133 148.431 166.333 148.365 166.5C148.331 166.7 148.281 166.85 148.215 166.95C148.115 167.183 147.931 167.383 147.665 167.55C147.431 167.75 146.881 167.65 146.015 167.25ZM134.815 148.7L138.465 146.05C138.565 145.95 138.915 145.617 139.515 145.05C140.148 144.483 141.181 143.667 142.615 142.6L148.765 137.6C149.598 137.167 150.448 136.617 151.315 135.95C152.215 135.283 152.898 134.8 153.365 134.5C153.931 134.1 154.431 133.75 154.865 133.45C155.298 133.15 155.581 133.017 155.715 133.05C155.981 132.917 156.248 132.967 156.515 133.2C156.815 133.4 157.048 133.683 157.215 134.05C157.415 134.383 157.498 134.683 157.465 134.95C157.531 135.283 157.465 135.567 157.265 135.8C157.065 136.033 156.581 136.367 155.815 136.8C155.181 137.1 154.615 137.4 154.115 137.7C153.648 138 153.365 138.25 153.265 138.45C153.265 138.45 152.948 138.7 152.315 139.2C151.715 139.667 150.931 140.233 149.965 140.9C148.631 141.767 147.481 142.583 146.515 143.35C145.581 144.117 144.981 144.7 144.715 145.1C144.581 145.1 144.448 145.15 144.315 145.25C144.215 145.35 144.098 145.383 143.965 145.35C143.965 145.35 143.831 145.433 143.565 145.6C143.331 145.767 143.148 145.933 143.015 146.1C142.948 146.267 142.798 146.5 142.565 146.8C142.365 147.1 142.098 147.233 141.765 147.2C141.531 147.333 141.115 147.617 140.515 148.05C139.915 148.45 139.281 148.9 138.615 149.4C137.981 149.9 137.431 150.35 136.965 150.75C136.498 151.15 136.248 151.383 136.215 151.45L134.815 148.7ZM159.505 163.4C159.238 163.133 159.038 162.8 158.905 162.4C158.805 162 158.772 161.6 158.805 161.2C158.838 160.8 158.922 160.467 159.055 160.2C159.055 159.933 159.088 159.733 159.155 159.6C159.255 159.433 159.288 159.283 159.255 159.15C159.222 159.017 159.255 158.783 159.355 158.45C159.455 158.117 159.555 157.8 159.655 157.5C159.888 156.967 160.138 156.333 160.405 155.6C160.672 154.833 160.922 154.083 161.155 153.35C161.388 152.617 161.588 151.983 161.755 151.45C161.922 150.917 162.022 150.583 162.055 150.45C162.055 150.05 162.322 149.833 162.855 149.8C163.255 149.667 163.555 149.667 163.755 149.8C163.955 149.9 164.222 150.217 164.555 150.75C164.822 151.017 164.922 151.417 164.855 151.95C164.788 152.483 164.572 153.15 164.205 153.95C164.072 154.217 163.905 154.6 163.705 155.1C163.538 155.6 163.422 156.05 163.355 156.45C163.222 156.717 163.055 157.1 162.855 157.6C162.688 158.067 162.538 158.517 162.405 158.95C162.338 159.117 162.272 159.367 162.205 159.7C162.138 160 162.055 160.333 161.955 160.7C161.855 161.033 161.722 161.333 161.555 161.6C161.255 162.967 160.972 163.767 160.705 164C160.472 164.233 160.072 164.033 159.505 163.4ZM164.355 143.1C164.188 142.933 164.038 142.7 163.905 142.4C163.772 142.067 163.688 141.767 163.655 141.5C163.622 141.2 163.655 141.05 163.755 141.05C164.022 141.017 164.338 140.733 164.705 140.2C165.072 139.667 165.222 139.2 165.155 138.8C165.155 138.667 165.205 138.55 165.305 138.45C165.405 138.317 165.522 138.233 165.655 138.2C166.055 137.933 166.438 137.9 166.805 138.1C167.205 138.267 167.572 138.617 167.905 139.15C168.205 139.783 168.288 140.317 168.155 140.75C168.022 141.15 167.655 141.717 167.055 142.45C166.555 143.117 166.088 143.483 165.655 143.55C165.255 143.617 164.822 143.467 164.355 143.1ZM174.781 165C174.148 165.167 173.631 165.033 173.231 164.6C172.865 164.167 172.648 163.5 172.581 162.6C172.515 161.7 172.615 160.633 172.881 159.4C173.048 159 173.181 158.617 173.281 158.25C173.381 157.85 173.431 157.533 173.431 157.3C173.498 156.967 173.631 156.483 173.831 155.85C174.031 155.183 174.248 154.5 174.481 153.8C174.715 153.1 174.931 152.483 175.131 151.95C175.365 151.383 175.515 151.033 175.581 150.9C175.715 150.9 175.831 150.783 175.931 150.55C176.031 150.317 176.081 150.083 176.081 149.85C176.081 149.583 176.131 149.283 176.231 148.95C176.365 148.617 176.498 148.383 176.631 148.25C176.631 148.083 176.665 147.9 176.731 147.7C176.831 147.467 176.881 147.283 176.881 147.15C176.881 147.017 176.915 146.883 176.981 146.75C177.081 146.617 177.131 146.483 177.131 146.35C177.365 145.917 177.665 145.233 178.031 144.3C178.431 143.333 178.848 142.267 179.281 141.1C179.748 139.933 180.181 138.783 180.581 137.65C180.981 136.517 181.298 135.567 181.531 134.8C181.798 134 181.931 133.517 181.931 133.35C181.931 133.083 181.998 132.883 182.131 132.75C182.265 132.617 182.465 132.55 182.731 132.55C182.831 132.45 182.948 132.383 183.081 132.35C183.248 132.317 183.398 132.3 183.531 132.3C183.531 132.3 183.598 132.367 183.731 132.5C183.865 132.633 184.065 132.833 184.331 133.1C184.598 133.333 184.748 133.6 184.781 133.9C184.848 134.2 184.881 134.55 184.881 134.95C184.881 135.383 184.831 135.767 184.731 136.1C184.631 136.433 184.431 136.917 184.131 137.55C183.831 138.183 183.365 139.167 182.731 140.5C182.465 141.167 182.181 141.8 181.881 142.4C181.581 142.967 181.431 143.317 181.431 143.45C181.431 143.583 181.365 143.783 181.231 144.05C181.131 144.317 181.015 144.65 180.881 145.05C180.748 145.317 180.565 145.717 180.331 146.25C180.098 146.75 179.848 147.3 179.581 147.9C179.348 148.467 179.148 148.967 178.981 149.4C178.815 149.8 178.731 150.033 178.731 150.1C178.731 150.233 178.715 150.367 178.681 150.5C178.681 150.633 178.615 150.767 178.481 150.9C178.348 150.9 178.265 151 178.231 151.2C178.231 151.367 178.231 151.45 178.231 151.45C178.231 151.783 177.965 152.667 177.431 154.1C176.898 155.933 176.398 157.617 175.931 159.15C175.498 160.683 175.281 161.917 175.281 162.85C175.281 163.65 175.265 164.183 175.231 164.45C175.198 164.683 175.048 164.867 174.781 165ZM187.529 162.65C187.195 162.45 186.945 162.25 186.779 162.05C186.612 161.85 186.529 161.567 186.529 161.2C186.529 160.7 186.595 160.183 186.729 159.65C186.862 159.083 186.995 158.533 187.129 158C187.195 157.4 187.279 156.8 187.379 156.2C187.512 155.567 187.745 154.983 188.079 154.45C188.445 153.183 188.829 151.933 189.229 150.7C189.629 149.433 189.979 148.133 190.279 146.8C190.712 145.567 191.095 144.483 191.429 143.55C191.795 142.583 192.245 141.367 192.779 139.9C193.079 139.067 193.329 138.183 193.529 137.25C193.762 136.283 194.112 135.417 194.579 134.65C194.779 134.35 194.929 134.1 195.029 133.9C195.162 133.667 195.295 133.45 195.429 133.25C195.462 133.117 195.562 133.033 195.729 133C195.929 132.967 196.145 132.983 196.379 133.05C196.612 133.117 196.795 133.233 196.929 133.4C197.029 133.367 197.145 133.467 197.279 133.7C197.445 133.9 197.595 134.133 197.729 134.4C197.862 134.667 197.912 134.9 197.879 135.1C197.879 135.233 197.845 135.417 197.779 135.65C197.745 135.883 197.662 136.1 197.529 136.3C197.395 136.433 197.262 136.633 197.129 136.9C197.029 137.133 196.862 137.467 196.629 137.9C196.495 138.333 196.379 138.783 196.279 139.25C196.179 139.683 196.045 140.083 195.879 140.45C195.745 140.85 195.579 141.233 195.379 141.6C195.212 141.967 195.095 142.267 195.029 142.5C194.795 143.267 194.512 144.017 194.179 144.75C193.879 145.483 193.612 146.267 193.379 147.1C193.145 147.9 192.912 148.733 192.679 149.6C192.445 150.433 192.112 151.233 191.679 152C191.445 152.367 191.279 152.833 191.179 153.4C191.079 153.967 190.979 154.533 190.879 155.1C190.679 155.7 190.495 156.267 190.329 156.8C190.195 157.3 190.129 157.617 190.129 157.75C189.929 158.483 189.779 159.217 189.679 159.95C189.612 160.65 189.445 161.267 189.179 161.8C189.145 162.133 189.079 162.4 188.979 162.6C188.879 162.8 188.712 162.917 188.479 162.95C188.245 162.95 187.929 162.85 187.529 162.65ZM202.252 230.85C200.819 229.917 199.852 229.1 199.352 228.4C198.852 227.733 199.052 227.117 199.952 226.55C200.152 226.417 200.469 226.533 200.902 226.9C201.369 227.233 201.752 227.55 202.052 227.85C202.719 228.45 203.535 228.817 204.502 228.95C205.502 229.117 206.619 229.033 207.852 228.7C209.252 228.267 210.469 227.667 211.502 226.9C212.569 226.1 213.569 225.133 214.502 224C215.202 223.1 215.685 222.133 215.952 221.1C216.219 220.033 216.319 219.05 216.252 218.15C216.219 217.25 216.035 216.617 215.702 216.25C214.869 215.083 213.702 214.283 212.202 213.85C210.735 213.383 209.002 213.417 207.002 213.95C206.769 213.983 206.419 214.05 205.952 214.15C205.485 214.25 205.069 214.35 204.702 214.45C204.335 214.517 204.135 214.55 204.102 214.55C203.869 214.617 203.685 214.7 203.552 214.8C203.419 214.867 203.252 215.117 203.052 215.55C202.885 215.95 202.619 216.683 202.252 217.75C201.885 218.783 201.335 220.317 200.602 222.35C199.902 224.383 199.335 225.833 198.902 226.7C198.502 227.533 198.135 227.917 197.802 227.85C197.502 227.75 197.119 227.383 196.652 226.75C196.385 226.283 196.219 225.833 196.152 225.4C196.085 224.933 196.219 224.4 196.552 223.8C196.719 223.5 196.852 223.233 196.952 223C197.052 222.733 197.185 222.283 197.352 221.65C197.519 221.15 197.835 220.283 198.302 219.05C198.802 217.783 199.385 216.317 200.052 214.65C200.719 212.95 201.419 211.2 202.152 209.4C202.885 207.6 203.585 205.9 204.252 204.3C204.952 202.7 205.535 201.35 206.002 200.25C206.469 199.217 206.752 198.467 206.852 198C206.952 197.533 206.919 197.283 206.752 197.25C206.752 197.083 206.702 196.933 206.602 196.8C206.502 196.633 206.469 196.483 206.502 196.35C206.502 196.217 206.719 196.033 207.152 195.8C207.619 195.567 208.119 195.35 208.652 195.15C209.219 194.95 209.652 194.883 209.952 194.95C210.119 194.95 210.319 194.95 210.552 194.95C210.785 194.917 210.902 194.833 210.902 194.7C211.002 194.7 211.319 194.667 211.852 194.6C212.385 194.533 212.969 194.533 213.602 194.6C215.835 194.8 217.569 195.45 218.802 196.55C220.035 197.617 220.635 199.083 220.602 200.95C220.569 201.517 220.269 202.283 219.702 203.25C219.169 204.217 218.502 205.183 217.702 206.15C216.935 207.117 216.185 207.933 215.452 208.6C215.019 208.967 214.552 209.35 214.052 209.75C213.585 210.117 213.169 210.433 212.802 210.7C212.469 210.933 212.302 211.05 212.302 211.05C212.302 211.05 212.435 211.1 212.702 211.2C212.969 211.3 213.252 211.4 213.552 211.5C215.085 212.067 216.352 212.783 217.352 213.65C218.352 214.517 219.035 215.717 219.402 217.25C219.535 217.75 219.535 218.367 219.402 219.1C219.302 219.833 219.152 220.567 218.952 221.3C218.752 222 218.535 222.6 218.302 223.1C218.069 223.333 217.885 223.583 217.752 223.85C217.619 224.083 217.552 224.2 217.552 224.2C217.552 224.267 217.419 224.533 217.152 225C216.885 225.433 216.569 225.917 216.202 226.45C215.835 226.983 215.485 227.45 215.152 227.85C214.819 228.117 214.419 228.433 213.952 228.8C213.519 229.167 213.019 229.517 212.452 229.85C211.919 230.183 211.335 230.467 210.702 230.7C209.769 231.1 208.752 231.367 207.652 231.5C206.585 231.667 205.569 231.683 204.602 231.55C203.635 231.45 202.852 231.217 202.252 230.85ZM204.702 211.6C204.702 211.6 205.002 211.55 205.602 211.45C206.235 211.317 206.919 211.183 207.652 211.05C208.385 210.883 208.919 210.733 209.252 210.6C209.419 210.5 209.652 210.367 209.952 210.2C210.285 210.033 210.619 209.783 210.952 209.45C211.419 209.017 212.002 208.4 212.702 207.6C213.435 206.767 214.152 205.9 214.852 205C215.552 204.067 216.085 203.233 216.452 202.5C217.219 201.3 217.635 200.417 217.702 199.85C217.769 199.25 217.585 198.733 217.152 198.3C216.852 197.933 216.335 197.7 215.602 197.6C214.902 197.467 214.152 197.433 213.352 197.5C212.552 197.533 211.869 197.633 211.302 197.8C210.869 197.933 210.535 198.1 210.302 198.3C210.069 198.467 209.952 198.733 209.952 199.1C209.952 199.4 209.852 199.7 209.652 200C209.485 200.267 209.319 200.483 209.152 200.65C209.119 200.883 209.035 201.1 208.902 201.3C208.769 201.467 208.702 201.55 208.702 201.55C208.702 201.683 208.469 202.233 208.002 203.2C207.535 204.167 207.069 205.283 206.602 206.55C206.002 207.983 205.535 209.15 205.202 210.05C204.869 210.917 204.702 211.433 204.702 211.6ZM229.017 226.4C228.75 226.133 228.55 225.8 228.417 225.4C228.317 225 228.284 224.6 228.317 224.2C228.35 223.8 228.434 223.467 228.567 223.2C228.567 222.933 228.6 222.733 228.667 222.6C228.767 222.433 228.8 222.283 228.767 222.15C228.734 222.017 228.767 221.783 228.867 221.45C228.967 221.117 229.067 220.8 229.167 220.5C229.4 219.967 229.65 219.333 229.917 218.6C230.184 217.833 230.434 217.083 230.667 216.35C230.9 215.617 231.1 214.983 231.267 214.45C231.434 213.917 231.534 213.583 231.567 213.45C231.567 213.05 231.834 212.833 232.367 212.8C232.767 212.667 233.067 212.667 233.267 212.8C233.467 212.9 233.734 213.217 234.067 213.75C234.334 214.017 234.434 214.417 234.367 214.95C234.3 215.483 234.084 216.15 233.717 216.95C233.584 217.217 233.417 217.6 233.217 218.1C233.05 218.6 232.934 219.05 232.867 219.45C232.734 219.717 232.567 220.1 232.367 220.6C232.2 221.067 232.05 221.517 231.917 221.95C231.85 222.117 231.784 222.367 231.717 222.7C231.65 223 231.567 223.333 231.467 223.7C231.367 224.033 231.234 224.333 231.067 224.6C230.767 225.967 230.484 226.767 230.217 227C229.984 227.233 229.584 227.033 229.017 226.4ZM233.867 206.1C233.7 205.933 233.55 205.7 233.417 205.4C233.284 205.067 233.2 204.767 233.167 204.5C233.134 204.2 233.167 204.05 233.267 204.05C233.534 204.017 233.85 203.733 234.217 203.2C234.584 202.667 234.734 202.2 234.667 201.8C234.667 201.667 234.717 201.55 234.817 201.45C234.917 201.317 235.034 201.233 235.167 201.2C235.567 200.933 235.95 200.9 236.317 201.1C236.717 201.267 237.084 201.617 237.417 202.15C237.717 202.783 237.8 203.317 237.667 203.75C237.534 204.15 237.167 204.717 236.567 205.45C236.067 206.117 235.6 206.483 235.167 206.55C234.767 206.617 234.334 206.467 233.867 206.1ZM244.293 228C243.66 228.167 243.143 228.033 242.743 227.6C242.376 227.167 242.16 226.5 242.093 225.6C242.026 224.7 242.126 223.633 242.393 222.4C242.56 222 242.693 221.617 242.793 221.25C242.893 220.85 242.943 220.533 242.943 220.3C243.01 219.967 243.143 219.483 243.343 218.85C243.543 218.183 243.76 217.5 243.993 216.8C244.226 216.1 244.443 215.483 244.643 214.95C244.876 214.383 245.026 214.033 245.093 213.9C245.226 213.9 245.343 213.783 245.443 213.55C245.543 213.317 245.593 213.083 245.593 212.85C245.593 212.583 245.643 212.283 245.743 211.95C245.876 211.617 246.01 211.383 246.143 211.25C246.143 211.083 246.176 210.9 246.243 210.7C246.343 210.467 246.393 210.283 246.393 210.15C246.393 210.017 246.426 209.883 246.493 209.75C246.593 209.617 246.643 209.483 246.643 209.35C246.876 208.917 247.176 208.233 247.543 207.3C247.943 206.333 248.36 205.267 248.793 204.1C249.26 202.933 249.693 201.783 250.093 200.65C250.493 199.517 250.81 198.567 251.043 197.8C251.31 197 251.443 196.517 251.443 196.35C251.443 196.083 251.51 195.883 251.643 195.75C251.776 195.617 251.976 195.55 252.243 195.55C252.343 195.45 252.46 195.383 252.593 195.35C252.76 195.317 252.91 195.3 253.043 195.3C253.043 195.3 253.11 195.367 253.243 195.5C253.376 195.633 253.576 195.833 253.843 196.1C254.11 196.333 254.26 196.6 254.293 196.9C254.36 197.2 254.393 197.55 254.393 197.95C254.393 198.383 254.343 198.767 254.243 199.1C254.143 199.433 253.943 199.917 253.643 200.55C253.343 201.183 252.876 202.167 252.243 203.5C251.976 204.167 251.693 204.8 251.393 205.4C251.093 205.967 250.943 206.317 250.943 206.45C250.943 206.583 250.876 206.783 250.743 207.05C250.643 207.317 250.526 207.65 250.393 208.05C250.26 208.317 250.076 208.717 249.843 209.25C249.61 209.75 249.36 210.3 249.093 210.9C248.86 211.467 248.66 211.967 248.493 212.4C248.326 212.8 248.243 213.033 248.243 213.1C248.243 213.233 248.226 213.367 248.193 213.5C248.193 213.633 248.126 213.767 247.993 213.9C247.86 213.9 247.776 214 247.743 214.2C247.743 214.367 247.743 214.45 247.743 214.45C247.743 214.783 247.476 215.667 246.943 217.1C246.41 218.933 245.91 220.617 245.443 222.15C245.01 223.683 244.793 224.917 244.793 225.85C244.793 226.65 244.776 227.183 244.743 227.45C244.71 227.683 244.56 227.867 244.293 228ZM257.04 225.65C256.707 225.45 256.457 225.25 256.29 225.05C256.124 224.85 256.04 224.567 256.04 224.2C256.04 223.7 256.107 223.183 256.24 222.65C256.374 222.083 256.507 221.533 256.64 221C256.707 220.4 256.79 219.8 256.89 219.2C257.024 218.567 257.257 217.983 257.59 217.45C257.957 216.183 258.34 214.933 258.74 213.7C259.14 212.433 259.49 211.133 259.79 209.8C260.224 208.567 260.607 207.483 260.94 206.55C261.307 205.583 261.757 204.367 262.29 202.9C262.59 202.067 262.84 201.183 263.04 200.25C263.274 199.283 263.624 198.417 264.09 197.65C264.29 197.35 264.44 197.1 264.54 196.9C264.674 196.667 264.807 196.45 264.94 196.25C264.974 196.117 265.074 196.033 265.24 196C265.44 195.967 265.657 195.983 265.89 196.05C266.124 196.117 266.307 196.233 266.44 196.4C266.54 196.367 266.657 196.467 266.79 196.7C266.957 196.9 267.107 197.133 267.24 197.4C267.374 197.667 267.424 197.9 267.39 198.1C267.39 198.233 267.357 198.417 267.29 198.65C267.257 198.883 267.174 199.1 267.04 199.3C266.907 199.433 266.774 199.633 266.64 199.9C266.54 200.133 266.374 200.467 266.14 200.9C266.007 201.333 265.89 201.783 265.79 202.25C265.69 202.683 265.557 203.083 265.39 203.45C265.257 203.85 265.09 204.233 264.89 204.6C264.724 204.967 264.607 205.267 264.54 205.5C264.307 206.267 264.024 207.017 263.69 207.75C263.39 208.483 263.124 209.267 262.89 210.1C262.657 210.9 262.424 211.733 262.19 212.6C261.957 213.433 261.624 214.233 261.19 215C260.957 215.367 260.79 215.833 260.69 216.4C260.59 216.967 260.49 217.533 260.39 218.1C260.19 218.7 260.007 219.267 259.84 219.8C259.707 220.3 259.64 220.617 259.64 220.75C259.44 221.483 259.29 222.217 259.19 222.95C259.124 223.65 258.957 224.267 258.69 224.8C258.657 225.133 258.59 225.4 258.49 225.6C258.39 225.8 258.224 225.917 257.99 225.95C257.757 225.95 257.44 225.85 257.04 225.65Z" fill="#DC4141"/>
<g clip-path="url(#clip0_16_23)">
<path d="M343.307 40.8997L267.008 135L267.065 136H268.076L364.458 62.5424L343.307 40.8997Z" fill="url(#paint0_linear_16_23)"/>
<path opacity="0.852018" d="M343.307 40.8997L268.565 133.08L267.065 136L270.065 134.485L364.458 62.5424L343.307 40.8997Z" fill="url(#paint1_linear_16_23)"/>
<path fill-rule="evenodd" clip-rule="evenodd" d="M350.502 114.929C341.671 123.759 321.12 117.525 304.6 101.004C288.079 84.4829 281.844 63.9319 290.674 55.1017C299.504 46.2716 320.055 52.5062 336.576 69.0271C353.097 85.548 359.332 106.099 350.502 114.929Z" fill="url(#paint2_radial_16_23)"/>
<path fill-rule="evenodd" clip-rule="evenodd" d="M394.186 55.0899C388.288 60.9885 373.943 56.2068 362.145 44.4096C350.348 32.6124 345.566 18.2671 351.465 12.3685C357.364 6.4699 371.709 11.2517 383.506 23.0489C395.303 34.8461 400.085 49.1913 394.186 55.0899Z" fill="url(#paint3_linear_16_23)"/>
<path d="M308.744 65.7703L351.465 12.3685C351.465 12.3685 346.459 16.4404 350.33 26.7203C352.667 32.5277 354.669 36.6663 362.145 44.4096C362.145 44.4096 369.53 52.1945 378.76 55.5956C383.76 57.4381 390.434 58.8429 394.186 55.09L340.785 97.8114C340.785 97.8114 330.104 108.492 314.084 92.4713C298.063 76.4507 308.744 65.7703 308.744 65.7703Z" fill="url(#paint4_linear_16_23)"/>
<path fill-rule="evenodd" clip-rule="evenodd" d="M397.09 56.8504C389.956 63.9847 373.352 58.9474 360.004 45.5994C346.656 32.2515 341.619 15.6473 348.753 8.51302C355.887 1.37875 372.491 6.41596 385.839 19.764C399.187 33.112 404.225 49.7161 397.09 56.8504Z" fill="url(#paint5_linear_16_23)"/>
<circle cx="268.065" cy="134.5" r="2.5" fill="#B8B8B8"/>
</g>
<g filter="url(#filter1_f_16_23)">
<path d="M323.836 137.999C305.964 140.853 284.747 138.617 266.113 138.372C270.772 138.489 274.987 139.053 279.858 139.053C283.211 139.053 284.535 139.794 287.595 140.301C290.379 140.762 293.311 140.208 296.065 140.808C308.353 143.483 321.979 139.65 330.432 146.23C334.486 149.385 333.831 151.992 341.589 153.447C350.955 155.202 361.325 158.142 371.315 158.674C386.306 159.471 403.517 159.126 414.315 153.954L414.316 153.953C417.642 152.36 438.193 142.516 426.368 140.457C417.918 138.985 411.708 136.696 403.728 134.84C398.136 133.539 390.434 134.138 384.345 134.138C373.963 134.138 363.41 134.918 353.235 135.893C343.419 136.833 333.457 136.463 323.836 137.999Z" fill="#B3B0B0" fill-opacity="0.25"/>
</g>
<defs>
<filter id="filter0_d_16_23" x="0.564529" y="90" width="413" height="216" filterUnits="userSpaceOnUse" color-interpolation-filters="sRGB">
<feFlood flood-opacity="0" result="BackgroundImageFix"/>
<feColorMatrix in="SourceAlpha" type="matrix" values="0 0 0 0 0 0 0 0 0 0 0 0 0 0 0 0 0 0 127 0" result="hardAlpha"/>
<feOffset dx="6" dy="4"/>
<feGaussianBlur stdDeviation="5"/>
<feComposite in2="hardAlpha" operator="out"/>
<feColorMatrix type="matrix" values="0 0 0 0 0 0 0 0 0 0 0 0 0 0 0 0 0 0 0.15 0"/>
<feBlend mode="normal" in2="BackgroundImageFix" result="effect1_dropShadow_16_23"/>
<feBlend mode="normal" in="SourceGraphic" in2="effect1_dropShadow_16_23" result="shape"/>
</filter>
<filter id="filter1_f_16_23" x="253" y="124" width="187" height="45" filterUnits="userSpaceOnUse" color-interpolation-filters="sRGB">
<feFlood flood-opacity="0" result="BackgroundImageFix"/>
<feBlend mode="normal" in="SourceGraphic" in2="BackgroundImageFix" result="shape"/>
<feGaussianBlur stdDeviation="5" result="effect1_foregroundBlur_16_23"/>
</filter>
<linearGradient id="paint0_linear_16_23" x1="258.258" y1="37.4835" x2="320.168" y2="107.838" gradientUnits="userSpaceOnUse">
<stop stop-color="#999999"/>
<stop offset="0.386334" stop-color="#E6E6E6"/>
<stop offset="0.563499" stop-color="#989898"/>
<stop offset="0.717042" stop-color="#333333"/>
<stop offset="1" stop-color="#999999"/>
</linearGradient>
<linearGradient id="paint1_linear_16_23" x1="306.374" y1="96.1723" x2="316.984" y2="106.782" gradientUnits="userSpaceOnUse">
<stop stop-color="#F9F9F9"/>
<stop offset="1" stop-color="white" stop-opacity="0"/>
</linearGradient>
<radialGradient id="paint2_radial_16_23" cx="0" cy="0" r="1" gradientUnits="userSpaceOnUse" gradientTransform="translate(320.588 85.0154) rotate(45) scale(42.3043 22.6109)">
<stop stop-color="#800000"/>
<stop offset="0.543488" stop-color="#FF0000"/>
<stop offset="1" stop-color="#FF5555"/>
</radialGradient>
<linearGradient id="paint3_linear_16_23" x1="356.939" y1="-25.9473" x2="369.118" y2="66.6855" gradientUnits="userSpaceOnUse">
<stop stop-color="#D40000"/>
<stop offset="0.195821" stop-color="#FF0000"/>
<stop offset="0.352941" stop-color="#FF8080"/>
<stop offset="0.558824" stop-color="#FF5555"/>
<stop offset="0.735294" stop-color="#FF0000"/>
<stop offset="1" stop-color="#AA0000"/>
</linearGradient>
<linearGradient id="paint4_linear_16_23" x1="322.628" y1="47.6137" x2="358.941" y2="83.9269" gradientUnits="userSpaceOnUse">
<stop stop-color="#D40000"/>
<stop offset="0.195821" stop-color="#FF0000"/>
<stop offset="0.352941" stop-color="#FF8080"/>
<stop offset="0.558824" stop-color="#FF5555"/>
<stop offset="0.735294" stop-color="#FF0000"/>
<stop offset="1" stop-color="#AA0000"/>
</linearGradient>
<linearGradient id="paint5_linear_16_23" x1="357.297" y1="-11.5127" x2="385.208" y2="70.0673" gradientUnits="userSpaceOnUse">
<stop stop-color="#D40000"/>
<stop offset="0.0549485" stop-color="#FF0000"/>
<stop offset="0.249641" stop-color="#FF8080"/>
<stop offset="0.430287" stop-color="#FF5555"/>
<stop offset="0.700904" stop-color="#FF0000"/>
<stop offset="1" stop-color="#AA0000"/>
</linearGradient>
<clipPath id="clip0_16_23">
<rect width="150" height="150" fill="white" transform="translate(254.565)"/>
</clipPath>
</defs>
</svg>
